<?xml version="1.0" encoding="utf-8"?>
<!-- Generator: Adobe Illustrator 22.1.0, SVG Export Plug-In . SVG Version: 6.00 Build 0)  -->
<svg version="1.1" id="Livello_1" xmlns="http://www.w3.org/2000/svg" xmlns:xlink="http://www.w3.org/1999/xlink" x="0px" y="0px"
	 viewBox="0 0 1193 453" style="enable-background:new 0 0 1193 453;" xml:space="preserve">
<style type="text/css">
	.st0{fill:#DD2F34;}
	.st1{fill:#E5AF05;}
	.st2{fill:#F2B906;}
	.st3{fill:#FFC704;}
	.st4{fill:url(#SVGID_1_);}
	.st5{fill:url(#SVGID_2_);}
	.st6{fill:url(#SVGID_3_);}
	.st7{fill:url(#SVGID_4_);}
	.st8{fill:none;stroke:#FFFFFF;stroke-width:11;stroke-linecap:round;stroke-linejoin:round;stroke-miterlimit:10;}
	.st9{fill:#FFFFFF;}
</style>
<path class="st0" d="M348.6,403H136.4C93.6,403,59,368.4,59,325.6V113.4C59,70.6,93.6,36,136.4,36h212.2c42.7,0,77.4,34.6,77.4,77.4
	v212.2C426,368.4,391.4,403,348.6,403z"/>
<g>
	<g>
		<g>
			<polygon class="st1" points="144.6,264.9 144.6,191.4 240.5,232.6 240.5,305.8 			"/>
			<path class="st1" d="M145.1,192.1L240,233V305l-94.9-40.4V192.1 M144.1,190.6v74.6l96.9,41.3v-74.2L144.1,190.6L144.1,190.6z"/>
		</g>
		<g>
			<polygon class="st2" points="241.5,232.6 337.9,191.4 337.9,264.9 241.5,305.8 			"/>
			<path class="st1" d="M337.4,192.1v72.4L242,305V233L337.4,192.1 M338.4,190.6L241,232.3v74.2l97.4-41.3V190.6L338.4,190.6z"/>
		</g>
		<g>
			<polygon class="st3" points="145.4,190.6 241,149.8 337.1,190.6 241,231.8 			"/>
			<path class="st1" d="M241,150.3l94.9,40.3L241,231.2l-94.3-40.6L241,150.3 M241,149.2l-96.9,41.4l96.9,41.7l97.4-41.7L241,149.2
				L241,149.2z"/>
		</g>
	</g>
	<g>
		<g>
			<path class="st3" d="M191.8,184c-4.4,0-8.6-0.6-12.2-1.7c-5.1-1.6-8.1-4.1-8.1-6.6c0-4.5,9.3-8.3,20.3-8.3
				c11,0,20.3,3.8,20.3,8.3c0,2.6-3,5-8.1,6.6C200.4,183.4,196.2,184,191.8,184z"/>
			<path class="st1" d="M191.8,167.8c11.8,0,19.8,4,19.8,7.8c0,2.3-2.9,4.6-7.7,6.2c-3.5,1.1-7.7,1.7-12,1.7c-4.4,0-8.5-0.6-12-1.7
				c-4.8-1.5-7.7-3.8-7.7-6.2C172,171.9,180,167.8,191.8,167.8 M191.8,166.8c-11.5,0-20.8,4-20.8,8.8c0,2.9,3.3,5.5,8.4,7.1
				c3.4,1.1,7.7,1.7,12.3,1.7c4.6,0,8.9-0.6,12.3-1.7c5.1-1.6,8.4-4.2,8.4-7.1C212.6,170.8,203.3,166.8,191.8,166.8L191.8,166.8z"/>
		</g>
		<g>
			<linearGradient id="SVGID_1_" gradientUnits="userSpaceOnUse" x1="171.5293" y1="188.3928" x2="212.0581" y2="188.3928">
				<stop  offset="0" style="stop-color:#E5AF05"/>
				<stop  offset="1" style="stop-color:#F2B906"/>
			</linearGradient>
			<path class="st4" d="M191.8,198.2c-11,0-20.3-3.8-20.3-8.3v-11.3c1.4,1.9,4,3.5,7.8,4.7c3.6,1.1,8,1.7,12.5,1.7
				c4.5,0,8.8-0.6,12.5-1.7c3.8-1.2,6.4-2.8,7.8-4.7v11.3C212.1,194.4,202.8,198.2,191.8,198.2z"/>
			<path class="st1" d="M172,179.9c1.6,1.5,4,2.9,7.1,3.8c3.7,1.2,8.1,1.8,12.6,1.8c4.6,0,8.9-0.6,12.6-1.8c3.2-1,5.6-2.3,7.1-3.8
				v10c0,3.8-7.9,7.8-19.8,7.8c-11.8,0-19.8-4-19.8-7.8V179.9 M212.6,175.7c0,2.9-3.3,5.5-8.4,7.1c-3.4,1.1-7.7,1.7-12.3,1.7
				c-4.6,0-8.9-0.6-12.3-1.7c-5.1-1.6-8.4-4.2-8.4-7.1v14.2c0,4.9,9.3,8.8,20.8,8.8c11.5,0,20.8-4,20.8-8.8V175.7L212.6,175.7z"/>
		</g>
	</g>
	<g>
		<g>
			<path class="st3" d="M240.9,205c-4.4,0-8.6-0.6-12.2-1.7c-5.1-1.6-8.1-4.1-8.1-6.6c0-4.5,9.3-8.3,20.3-8.3
				c11,0,20.3,3.8,20.3,8.3c0,2.6-3,5-8.1,6.6C249.5,204.4,245.3,205,240.9,205z"/>
			<path class="st1" d="M240.9,188.8c11.8,0,19.8,4,19.8,7.8c0,2.3-2.9,4.6-7.7,6.2c-3.5,1.1-7.7,1.7-12,1.7c-4.4,0-8.5-0.6-12-1.7
				c-4.8-1.5-7.7-3.8-7.7-6.2C221.1,192.9,229.1,188.8,240.9,188.8 M240.9,187.8c-11.5,0-20.8,4-20.8,8.8c0,2.9,3.3,5.5,8.4,7.1
				c3.4,1.1,7.7,1.7,12.3,1.7c4.6,0,8.9-0.6,12.3-1.7c5.1-1.6,8.4-4.2,8.4-7.1C261.7,191.8,252.4,187.8,240.9,187.8L240.9,187.8z"/>
		</g>
		<g>
			<linearGradient id="SVGID_2_" gradientUnits="userSpaceOnUse" x1="220.6235" y1="209.3643" x2="261.1523" y2="209.3643">
				<stop  offset="0" style="stop-color:#E5AF05"/>
				<stop  offset="1" style="stop-color:#F2B906"/>
			</linearGradient>
			<path class="st5" d="M240.9,219.2c-11,0-20.3-3.8-20.3-8.3v-11.3c1.4,1.9,4,3.5,7.8,4.7c3.6,1.1,8,1.7,12.5,1.7
				c4.5,0,8.8-0.6,12.5-1.7c3.8-1.2,6.4-2.8,7.8-4.7v11.3C261.2,215.4,251.9,219.2,240.9,219.2z"/>
			<path class="st1" d="M221.1,200.9c1.6,1.5,4,2.9,7.1,3.8c3.7,1.2,8.1,1.8,12.6,1.8c4.6,0,8.9-0.6,12.6-1.8c3.2-1,5.6-2.3,7.1-3.8
				v10c0,3.8-7.9,7.8-19.8,7.8c-11.8,0-19.8-4-19.8-7.8V200.9 M261.7,196.7c0,2.9-3.3,5.5-8.4,7.1c-3.4,1.1-7.7,1.7-12.3,1.7
				c-4.6,0-8.9-0.6-12.3-1.7c-5.1-1.6-8.4-4.2-8.4-7.1v14.2c0,4.9,9.3,8.8,20.8,8.8c11.5,0,20.8-4,20.8-8.8V196.7L261.7,196.7z"/>
		</g>
	</g>
	<g>
		<g>
			<path class="st3" d="M289.7,184.7c-4.4,0-8.6-0.6-12.2-1.7c-5.1-1.6-8.1-4.1-8.1-6.6c0-4.5,9.3-8.3,20.3-8.3
				c11,0,20.3,3.8,20.3,8.3c0,2.6-3,5-8.1,6.6C298.3,184.1,294.1,184.7,289.7,184.7z"/>
			<path class="st1" d="M289.7,168.5c11.8,0,19.8,4,19.8,7.8c0,2.3-2.9,4.6-7.7,6.2c-3.5,1.1-7.7,1.7-12,1.7c-4.4,0-8.5-0.6-12-1.7
				c-4.8-1.5-7.7-3.8-7.7-6.2C269.9,172.6,277.8,168.5,289.7,168.5 M289.7,167.5c-11.5,0-20.8,4-20.8,8.8c0,2.9,3.3,5.5,8.4,7.1
				c3.4,1.1,7.7,1.7,12.3,1.7c4.6,0,8.9-0.6,12.3-1.7c5.1-1.6,8.4-4.2,8.4-7.1C310.4,171.5,301.1,167.5,289.7,167.5L289.7,167.5z"/>
		</g>
		<g>
			<linearGradient id="SVGID_3_" gradientUnits="userSpaceOnUse" x1="269.396" y1="189.0828" x2="309.9248" y2="189.0828">
				<stop  offset="0" style="stop-color:#E5AF05"/>
				<stop  offset="1" style="stop-color:#F2B906"/>
			</linearGradient>
			<path class="st6" d="M289.7,198.9c-11,0-20.3-3.8-20.3-8.3v-11.3c1.4,1.9,4,3.5,7.8,4.7c3.6,1.1,8,1.7,12.5,1.7
				c4.5,0,8.8-0.6,12.5-1.7c3.8-1.2,6.4-2.8,7.8-4.7v11.3C309.9,195.1,300.6,198.9,289.7,198.9z"/>
			<path class="st1" d="M269.9,180.6c1.6,1.5,4,2.9,7.1,3.8c3.7,1.2,8.1,1.8,12.6,1.8c4.6,0,8.9-0.6,12.6-1.8c3.2-1,5.6-2.3,7.1-3.8
				v10c0,3.8-7.9,7.8-19.8,7.8c-11.8,0-19.8-4-19.8-7.8V180.6 M310.4,176.4c0,2.9-3.3,5.5-8.4,7.1c-3.4,1.1-7.7,1.7-12.3,1.7
				c-4.6,0-8.9-0.6-12.3-1.7c-5.1-1.6-8.4-4.2-8.4-7.1v14.2c0,4.9,9.3,8.8,20.8,8.8c11.5,0,20.8-4,20.8-8.8V176.4L310.4,176.4z"/>
		</g>
	</g>
	<g>
		<g>
			<path class="st3" d="M241,163.7c-4.4,0-8.6-0.6-12.2-1.7c-5.1-1.6-8.1-4.1-8.1-6.6c0-4.5,9.3-8.3,20.3-8.3
				c11,0,20.3,3.8,20.3,8.3c0,2.6-3,5-8.1,6.6C249.6,163.1,245.4,163.7,241,163.7z"/>
			<path class="st1" d="M241,147.6c11.8,0,19.8,4,19.8,7.8c0,2.3-2.9,4.6-7.7,6.2c-3.5,1.1-7.7,1.7-12,1.7c-4.4,0-8.5-0.6-12-1.7
				c-4.8-1.5-7.7-3.8-7.7-6.2C221.2,151.6,229.1,147.6,241,147.6 M241,146.6c-11.5,0-20.8,4-20.8,8.8c0,2.9,3.3,5.5,8.4,7.1
				c3.4,1.1,7.7,1.7,12.3,1.7c4.6,0,8.9-0.6,12.3-1.7c5.1-1.6,8.4-4.2,8.4-7.1C261.7,150.5,252.4,146.6,241,146.6L241,146.6z"/>
		</g>
		<g>
			<linearGradient id="SVGID_4_" gradientUnits="userSpaceOnUse" x1="220.6924" y1="168.1113" x2="261.2217" y2="168.1113">
				<stop  offset="0" style="stop-color:#E5AF05"/>
				<stop  offset="1" style="stop-color:#F2B906"/>
			</linearGradient>
			<path class="st7" d="M241,177.9c-11,0-20.3-3.8-20.3-8.3v-11.3c1.4,1.9,4,3.5,7.8,4.7c3.6,1.1,8,1.7,12.5,1.7
				c4.5,0,8.8-0.6,12.5-1.7c3.8-1.2,6.4-2.8,7.8-4.7v11.3C261.2,174.1,251.9,177.9,241,177.9z"/>
			<path class="st1" d="M221.2,159.6c1.6,1.5,4,2.9,7.1,3.8c3.7,1.2,8.1,1.8,12.6,1.8c4.6,0,8.9-0.6,12.6-1.8c3.2-1,5.6-2.3,7.1-3.8
				v10c0,3.8-7.9,7.8-19.8,7.8c-11.8,0-19.8-4-19.8-7.8V159.6 M261.7,155.4c0,2.9-3.3,5.5-8.4,7.1c-3.4,1.1-7.7,1.7-12.3,1.7
				c-4.6,0-8.9-0.6-12.3-1.7c-5.1-1.6-8.4-4.2-8.4-7.1v14.2c0,4.9,9.3,8.8,20.8,8.8c11.5,0,20.8-4,20.8-8.8V155.4L261.7,155.4z"/>
		</g>
	</g>
	<polyline class="st8" points="121.2,249.7 121.2,279 147.8,290.3 	"/>
	<polyline class="st8" points="362.3,249.7 362.3,279 335.7,290.3 	"/>
	<polyline class="st8" points="214.5,318.7 241.6,330.1 268.6,318.5 	"/>
	<polyline class="st8" points="149.2,167 121.2,178.4 121.2,205.8 	"/>
	<polyline class="st8" points="334.2,167 362.3,178.4 362.3,205.8 	"/>
	<polyline class="st8" points="213.9,138.8 241,127.3 268,139 	"/>
</g>
<g>
	<path class="st9" d="M497.5,82.2h33.3v72.9h44.6v25.8h-77.8V82.2z"/>
	<path class="st9" d="M666.5,155.8v25.1h-82.1V82.2h80.2v25.1h-47.5v11.6h41.7v24h-41.7v13H666.5z"/>
	<path class="st9" d="M744.7,128.9h28.9v41.7c-5.8,4-12.6,7.1-20.3,9.3c-7.7,2.2-15.3,3.2-22.7,3.2c-10.5,0-20-2.2-28.3-6.6
		c-8.4-4.4-14.9-10.5-19.7-18.3c-4.7-7.8-7.1-16.8-7.1-26.7c0-10,2.4-18.9,7.1-26.7c4.7-7.8,11.4-14,19.9-18.3
		c8.5-4.4,18.1-6.6,28.8-6.6c9.7,0,18.4,1.6,26,4.9c7.7,3.2,14,8,19.1,14.2l-21.3,18.8c-6.2-7.2-13.6-10.9-22.1-10.9
		c-7.3,0-13.2,2.2-17.5,6.6c-4.3,4.4-6.5,10.4-6.5,18c0,7.4,2.1,13.4,6.4,17.9c4.3,4.5,10,6.8,17.1,6.8c4.2,0,8.3-0.8,12.1-2.4
		V128.9z"/>
	<path class="st9" d="M810.9,176.6c-8.5-4.4-15.1-10.6-19.9-18.4c-4.8-7.8-7.2-16.7-7.2-26.6s2.4-18.7,7.2-26.6
		c4.8-7.8,11.4-14,19.9-18.4c8.5-4.4,18-6.6,28.6-6.6c10.6,0,20.2,2.2,28.6,6.6c8.5,4.4,15.1,10.6,19.9,18.4
		c4.8,7.9,7.2,16.7,7.2,26.6s-2.4,18.7-7.2,26.6c-4.8,7.8-11.4,14-19.9,18.4c-8.5,4.4-18,6.6-28.6,6.6
		C828.9,183.2,819.4,181,810.9,176.6z M850.8,153.2c3.3-2,6-4.9,8-8.6c2-3.7,3-8.1,3-13c0-5-1-9.3-3-13c-2-3.7-4.6-6.6-8-8.6
		c-3.3-2-7.1-3-11.2-3c-4.1,0-7.9,1-11.2,3c-3.3,2-6,4.9-8,8.6c-2,3.7-3,8.1-3,13c0,5,1,9.3,3,13c2,3.7,4.6,6.6,8,8.6
		c3.3,2,7.1,3,11.2,3C843.7,156.3,847.4,155.3,850.8,153.2z"/>
	<path class="st9" d="M564.7,332.9h-37.5l-6.6,17.2h-33.8l43.1-98.7h32.7l43.1,98.7h-34.4L564.7,332.9z M555.6,309l-9.6-24.8
		l-9.6,24.8H555.6z"/>
	<path class="st9" d="M653.4,325.3h-9v24.8h-33.3v-98.7h47.5c9.1,0,17.1,1.5,23.8,4.5c6.8,3,12,7.3,15.7,13
		c3.7,5.6,5.5,12.2,5.5,19.7c0,7-1.6,13.2-4.8,18.5c-3.2,5.3-7.8,9.4-13.8,12.5l20.7,30.5h-35.5L653.4,325.3z M666.7,280.1
		c-2.3-2-5.6-3-10.2-3h-12.1v23.1h12.1c4.5,0,7.9-1,10.2-3c2.3-2,3.4-4.9,3.4-8.5S668.9,282.2,666.7,280.1z"/>
	<path class="st9" d="M779.9,277.2H751v-25.8h91.1v25.8h-28.9v72.9h-33.3V277.2z"/>
	<path class="st9" d="M859.6,346.4c-6.8-3.4-12.1-8.2-16-14.2c-3.9-6.1-5.8-12.9-5.8-20.7c0-7.7,1.9-14.6,5.8-20.7
		c3.9-6.1,9.2-10.8,16-14.2c6.8-3.4,14.5-5.1,23.1-5.1c8.6,0,16.4,1.7,23.2,5.1c6.8,3.4,12.1,8.1,15.9,14.2
		c3.8,6.1,5.7,12.9,5.7,20.7c0,7.7-1.9,14.6-5.7,20.7c-3.8,6.1-9.1,10.8-15.9,14.2c-6.8,3.4-14.5,5.1-23.2,5.1
		C874.1,351.5,866.5,349.8,859.6,346.4z M891.7,322.7c2.3-2.7,3.5-6.4,3.5-11.2s-1.2-8.5-3.5-11.1c-2.4-2.6-5.4-3.9-9-3.9
		s-6.7,1.3-9,3.9c-2.4,2.6-3.5,6.3-3.5,11.1s1.2,8.5,3.5,11.2c2.3,2.7,5.4,4,9,4S889.4,325.4,891.7,322.7z"/>
	<path class="st9" d="M955.2,346.4c-6.8-3.4-12.1-8.2-16-14.2c-3.9-6.1-5.8-12.9-5.8-20.7c0-7.7,1.9-14.6,5.8-20.7
		c3.9-6.1,9.2-10.8,16-14.2c6.8-3.4,14.5-5.1,23.1-5.1c8.6,0,16.4,1.7,23.2,5.1c6.8,3.4,12.1,8.1,15.9,14.2
		c3.8,6.1,5.7,12.9,5.7,20.7c0,7.7-1.9,14.6-5.7,20.7c-3.8,6.1-9.1,10.8-15.9,14.2c-6.8,3.4-14.5,5.1-23.2,5.1
		C969.7,351.5,962.1,349.8,955.2,346.4z M987.3,322.7c2.3-2.7,3.5-6.4,3.5-11.2s-1.2-8.5-3.5-11.1c-2.4-2.6-5.4-3.9-9-3.9
		s-6.7,1.3-9,3.9c-2.4,2.6-3.5,6.3-3.5,11.1s1.2,8.5,3.5,11.2c2.3,2.7,5.4,4,9,4S985,325.4,987.3,322.7z"/>
	<path class="st9" d="M1033.1,245.5h31.9v104.6h-31.9V245.5z"/>
	<path class="st9" d="M1089.8,349.4c-6.4-1.4-11.6-3.2-15.5-5.5l8.7-21c3.6,2.2,7.8,3.9,12.7,5.1c4.9,1.2,9.6,1.8,14.2,1.8
		c3.7,0,6.2-0.3,7.7-0.9c1.5-0.6,2.2-1.5,2.2-2.7c0-1.2-0.9-2.1-2.7-2.5c-1.8-0.5-4.8-0.9-9-1.4c-6.3-0.8-11.7-1.7-16.1-2.9
		c-4.4-1.2-8.3-3.5-11.6-6.8c-3.3-3.4-5-8.2-5-14.5c0-5,1.5-9.4,4.5-13.4c3-3.9,7.5-7.1,13.5-9.4c6-2.3,13.1-3.5,21.5-3.5
		c5.8,0,11.5,0.5,17.1,1.6c5.6,1.1,10.4,2.7,14.3,4.7l-8.7,21c-6.8-3.8-14.2-5.6-22.3-5.6c-7,0-10.4,1.2-10.4,3.7
		c0,1.2,0.9,2.1,2.8,2.6c1.9,0.5,4.8,1,8.9,1.5c6.3,0.8,11.6,1.7,16,3c4.4,1.2,8.2,3.5,11.6,6.9c3.3,3.4,5,8.2,5,14.5
		c0,4.8-1.5,9.2-4.5,13.1c-3,3.9-7.5,7.1-13.5,9.4c-6,2.3-13.3,3.5-21.9,3.5C1102.7,351.5,1096.2,350.8,1089.8,349.4z"/>
</g>
</svg>
